<?xml version="1.0" encoding="UTF-8"?>
<svg width="28px" height="33px" viewBox="0 0 28 33" version="1.1" xmlns="http://www.w3.org/2000/svg" xmlns:xlink="http://www.w3.org/1999/xlink">
    <!-- Generator: Sketch 63.1 (92452) - https://sketch.com -->
    <title>airplane-illustration</title>
    <desc>Created with Sketch.</desc>
    <g id="airplane-illustration" stroke="none" stroke-width="1" fill="none" fill-rule="evenodd">
        <g id="Group" transform="translate(1.000000, 1.000000)" stroke="#353535">
            <path d="M18.0618932,10.625 C18.1444175,10.525 22.1055825,10.525 22.1881068,10.625 C22.2706311,10.725 22.2706311,12.525 22.1881068,12.625 C22.1055825,12.725 18.1444175,12.725 18.0618932,12.625 C17.9793689,12.525 17.9793689,10.725 18.0618932,10.625 Z" id="Rectangle" fill="#EDF4FF" transform="translate(20.125000, 11.625000) rotate(90.000000) translate(-20.125000, -11.625000) "></path>
            <path d="M3.01189321,10.625 C3.09441748,10.525 7.05558253,10.525 7.1381068,10.625 C7.22063107,10.725 7.22063107,12.525 7.1381068,12.625 C7.05558253,12.725 3.09441748,12.725 3.01189321,12.625 C2.92936893,12.525 2.92936893,10.725 3.01189321,10.625 Z" id="Rectangle" fill="#EDF4FF" transform="translate(5.075000, 11.625000) rotate(90.000000) translate(-5.075000, -11.625000) "></path>
            <path d="M13.4762095,24 C16.6237547,25.705953 18.2368934,26.6551064 18.3156258,26.8474603 C18.5392294,27.3301416 18.5392294,28.7767384 18.2528665,29.017215 C17.3769293,28.7333017 15.7847103,28.2420321 13.4762095,27.5434064 L13.4762095,24 Z" id="Rectangle" fill="#AABAE3"></path>
            <path d="M5.97620948,24 C9.12525247,25.705953 10.7388228,26.6551064 10.8169204,26.8474603 C11.0387213,27.3301416 11.0387213,28.7767384 10.754667,29.017215 C9.8857915,28.7333017 8.29297232,28.2169609 5.97620948,27.4681926 L5.97620948,24 Z" id="Rectangle" fill="#AABAE3" transform="translate(8.476209, 26.508608) scale(-1, 1) translate(-8.476209, -26.508608) "></path>
            <path d="M12.1548619,8 C20.2599013,11.1481906 24.4137903,12.8505218 24.6165288,13.1069937 C25.1923159,13.7505687 25.1923159,15.6793644 24.4549213,16 C22.1993524,15.6214488 18.0993326,15.4321733 12.1548619,15.4321733 L12.1548619,8 Z" id="Rectangle" fill="#AABAE3"></path>
            <path d="M-4.08562073e-14,8 C8.10503941,11.1481906 12.2589284,12.8505218 12.4616669,13.1069937 C13.037454,13.7505687 13.037454,15.6793644 12.3000594,16 C10.0444905,15.6214488 5.94447067,15.4321733 -4.08562073e-14,15.4321733 L-4.08562073e-14,8 Z" id="Rectangle" fill="#AABAE3" transform="translate(6.437588, 12.000000) scale(-1, 1) translate(-6.437588, -12.000000) "></path>
            <path d="M12.1944283,0 C16.6773902,0 14.3230723,23.0102692 14.2255076,24.0134792 C14.1279429,25.0166892 13.9299218,29 12.1004923,29 C10.2710628,29 10.3250752,25.0269583 10.2166414,24.0134792 C10.1082077,23 7.71146637,0 12.1944283,0 Z" id="Rectangle" fill="#AABAE3"></path>
            <path d="M10.1618932,3.075 C10.2041213,3.02382944 11.1709727,2.26037199 12.205018,2.26155053 C13.1917544,2.2627131 14.2478107,3.02617056 14.2881068,3.075 C14.3706311,3.175 14.3706311,4.975 14.2881068,5.075 C14.2470148,5.12479383 13.2317375,4.74416277 12.225,4.74436809 C11.2099258,4.7445751 10.2033255,5.12520617 10.1618932,5.075 C10.0793689,4.975 10.0793689,3.175 10.1618932,3.075 Z" id="Rectangle" fill="#EDF4FF"></path>
        </g>
    </g>
</svg>