<?xml version="1.0" encoding="UTF-8"?>
<svg width="12px" height="33px" viewBox="0 0 12 33" version="1.1" xmlns="http://www.w3.org/2000/svg" xmlns:xlink="http://www.w3.org/1999/xlink">
    <!-- Generator: Sketch 63.1 (92452) - https://sketch.com -->
    <title>bottle</title>
    <desc>Created with Sketch.</desc>
    <g id="bottle" stroke="none" stroke-width="1" fill="none" fill-rule="evenodd">
        <g transform="translate(1.000000, 1.000000)">
            <path d="M3.21417855,0.183273423 C3.40975238,-0.046068234 6.10427222,-0.0756663325 6.22761412,0.183273423 C6.35095601,0.442213178 6.75628091,6.20362274 6.75628091,8.16242506 C6.75628091,10.1212274 9.24623316,11.7665105 9.24623316,12.0345517 C9.24623316,12.9003215 9.50612637,29.7579124 9.24623316,30.1427376 C8.98633995,30.5275627 0.50526347,30.5275627 0.155465683,30.1427376 C-0.194332104,29.7579124 0.155465683,13.0531187 0.155465683,12.0345517 C0.155465683,11.0159848 2.72639388,10.1625587 2.72639388,8.16242506 C2.72639388,6.16229147 3.01860471,0.41261508 3.21417855,0.183273423 Z" id="Rectangle" stroke="#499064" fill="#A4DBB9"></path>
            <path d="M0.216177939,13.1427376 C0.417835589,12.430969 9.07061463,12.6297792 9.21617794,13.1427376 C9.36174125,13.6556959 9.36174125,26.7241444 9.36174125,27.1427376 C9.36174125,27.5613308 0.0145202896,27.5081906 -3.15364054e-14,27.1427376 C-0.0145202896,26.7772845 0.0145202896,13.8545061 0.216177939,13.1427376 Z" id="Rectangle" stroke="#9D5C34" fill="#DAAC90"></path>
            <path d="M3.21617794,0.142737573 C3.33355653,-3.51732532e-14 6.10843887,0.0523947877 6.21617794,0.142737573 C6.28800399,0.202966096 6.28800399,0.869632763 6.21617794,2.14273757 L3.21617794,2.14273757 C3.13792554,0.904562621 3.13792554,0.237895955 3.21617794,0.142737573 Z" id="Rectangle" stroke="#499064" fill="#EFC88B"></path>
            <ellipse id="Oval" stroke="#9D5C34" stroke-width="0.75" fill="#AABAE3" cx="4.71617794" cy="20.1427376" rx="4.5" ry="7"></ellipse>
        </g>
    </g>
</svg>