<?xml version="1.0" encoding="UTF-8"?>
<svg width="46px" height="30px" viewBox="0 0 46 30" version="1.1" xmlns="http://www.w3.org/2000/svg" xmlns:xlink="http://www.w3.org/1999/xlink">
    <!-- Generator: Sketch 63.1 (92452) - https://sketch.com -->
    <title>camera-illustration</title>
    <desc>Created with Sketch.</desc>
    <g id="camera-illustration" stroke="none" stroke-width="1" fill="none" fill-rule="evenodd">
        <g id="camera" transform="translate(1.000000, 1.000000)">
            <path d="M0.35796581,3.31960246 C28.8757808,2.89346585 43.3247807,2.89346585 43.7049654,3.31960246 C43.9752062,3.62250653 44.205036,27.1426764 43.7049654,27.5519307 C42.7544843,28.3297978 1.07389743,27.9375233 0.35796581,27.5519307 C-0.119321937,27.294869 -0.119321937,19.2174262 0.35796581,3.31960246 Z" id="Rectangle" stroke="#353535" fill="#949699"></path>
            <circle id="Oval" stroke="#353535" fill="#666666" cx="22.5" cy="16.5" r="9.5"></circle>
            <circle id="Oval" stroke="#BABABA" fill="#EDF4FF" cx="22.5" cy="16.5" r="6.5"></circle>
            <path d="M0.217413395,0.467682719 C0.44468304,0.1704265 7.51893502,0.331934007 7.71203548,0.467682719 C7.90513594,0.603431431 8.2498585,3.02503232 7.71203548,3.18215671 C7.17421247,3.3392811 0.563851874,3.3392811 0.217413395,3.18215671 C-0.129025083,3.02503232 -0.00985624914,0.764938938 0.217413395,0.467682719 Z" id="Rectangle" stroke="#353535" fill="#EDF4FF"></path>
            <path d="M34.2174134,5.16768272 C34.444683,4.8704265 41.518935,5.03193401 41.7120355,5.16768272 C41.9051359,5.30343143 42.2498585,7.72503232 41.7120355,7.88215671 C41.1742125,8.0392811 34.5638519,8.0392811 34.2174134,7.88215671 C33.8709749,7.72503232 33.9901438,5.46493894 34.2174134,5.16768272 Z" id="Rectangle" stroke="#353535" fill="#EDF4FF"></path>
            <path d="M0.3726986,7.21861628 C0.862295093,6.89940859 7.55297346,6.95622845 7.8084172,7.21861628 C8.06386093,7.48100412 8.06386093,24.2995271 7.8084172,24.6789423 C7.55297346,25.0583574 0.876911307,25.1530696 0.3726986,24.6789423 C-0.131514106,24.2048149 -0.116897892,7.53782397 0.3726986,7.21861628 Z" id="Rectangle" stroke="#353535" fill="#AABAE3"></path>
        </g>
    </g>
</svg>