<?xml version="1.0" encoding="UTF-8"?>
<svg width="25px" height="36px" viewBox="0 0 25 36" version="1.1" xmlns="http://www.w3.org/2000/svg" xmlns:xlink="http://www.w3.org/1999/xlink">
    <!-- Generator: Sketch 63.1 (92452) - https://sketch.com -->
    <title>coffee-cup</title>
    <desc>Created with Sketch.</desc>
    <g id="coffee-cup" stroke="none" stroke-width="1" fill="none" fill-rule="evenodd">
        <g transform="translate(1.000000, 1.000000)" id="Rectangle">
            <path d="M1.76164155,5.97228893 C2.49259157,5.09949776 20.8072124,5.45787144 21.4994585,5.97228893 C22.1917047,6.48670643 19.8461187,31.7202578 18.7366095,32.7875144 C17.6271003,33.8547709 5.78404229,33.4465204 4.59925556,32.7875144 C3.41446884,32.1285083 1.03069154,6.84508011 1.76164155,5.97228893 Z" stroke="#9D5C34" fill="#DAAC90"></path>
            <path d="M1.97532109,14.0140331 C1.97532109,13.3051637 21.2752037,13.2051417 21.2752037,13.832121 C21.2752037,14.4591003 20.6180957,21.7894883 20.3695162,22.9141178 C20.1209367,24.0387472 2.95112728,23.266554 2.84037058,22.876836 C2.72961388,22.4871181 1.97532109,14.7229025 1.97532109,14.0140331 Z" stroke="#499064" fill="#A4DBB9"></path>
            <path d="M1.68270012,3.77380044 C2.25495664,3.54569554 10.0332087,3.44367589 12.0942837,3.44367589 C14.1553587,3.44367589 20.7494823,3.54245593 21.3758162,3.77380044 C22.619713,4.23324984 23.5577629,5.95124553 22.9186003,6.23263431 C22.2794377,6.51402308 0.819824879,6.51402308 0.29448897,6.23263431 C-0.230846938,5.95124553 0.530059697,4.23324984 1.68270012,3.77380044 Z" stroke="#353535" fill="#949699"></path>
            <path d="M5.14089138,0.79003139 C5.51410216,0.550711458 10.5868752,0.443675889 11.9310546,0.443675889 C13.275234,0.443675889 17.5757493,0.54731256 17.9842279,0.79003139 C18.795465,1.27207015 19.4072367,3.07453307 18.9903915,3.36975665 C18.7989286,3.50535703 15.7620177,3.35872263 12.4799847,3.36975665 C8.61651057,3.38274543 4.42078084,3.52937984 4.23553629,3.36975665 C3.89292591,3.07453307 4.38916937,1.27207015 5.14089138,0.79003139 Z" stroke="#353535" fill="#949699"></path>
        </g>
    </g>
</svg>