<?xml version="1.0" encoding="UTF-8"?>
<svg width="169px" height="39px" viewBox="0 0 169 39" version="1.1" xmlns="http://www.w3.org/2000/svg" xmlns:xlink="http://www.w3.org/1999/xlink">
    <!-- Generator: Sketch 63.1 (92452) - https://sketch.com -->
    <title>page-footer-color</title>
    <desc>Created with Sketch.</desc>
    <g id="page-footer-color" stroke="none" stroke-width="1" fill="none" fill-rule="evenodd">
        <g id="museum" transform="translate(2.000000, 2.000000)" stroke="#353535">
            <rect id="Rectangle" fill="#F2F3D8" x="4.00023669" y="2.8748603" width="36" height="32"></rect>
            <g id="stairs" transform="translate(2.000237, 25.874860)" fill="#EDF4FF">
                <rect id="bottom" x="0" y="6" width="40" height="3"></rect>
                <rect id="middle" x="4" y="3" width="32" height="3"></rect>
                <rect id="top" x="8" y="0" width="24" height="3"></rect>
            </g>
            <g id="columns" transform="translate(10.000237, 8.874860)">
                <g id="cols" transform="translate(0.000000, 3.000000)" fill="#A4DBB9">
                    <rect id="Rectangle" x="21" y="0" width="3" height="11"></rect>
                    <rect id="Rectangle" x="7" y="0" width="3" height="11"></rect>
                    <rect id="Rectangle" x="14" y="0" width="3" height="11"></rect>
                    <rect id="Rectangle" x="0" y="0" width="3" height="11"></rect>
                </g>
                <g id="bases" transform="translate(0.000000, 14.000000)" fill="#FFFFFF">
                    <rect id="Rectangle" x="21" y="0" width="3" height="3"></rect>
                    <rect id="Rectangle" x="0" y="0" width="3" height="3"></rect>
                    <rect id="Rectangle" x="7" y="0" width="3" height="3"></rect>
                    <rect id="Rectangle" x="14" y="0" width="3" height="3"></rect>
                </g>
                <g id="caps" fill="#FFFFFF">
                    <rect id="Rectangle" x="21" y="0" width="3" height="3"></rect>
                    <rect id="Rectangle" x="0" y="0" width="3" height="3"></rect>
                    <rect id="Rectangle" x="7" y="0" width="3" height="3"></rect>
                    <rect id="Rectangle" x="14" y="0" width="3" height="3"></rect>
                </g>
            </g>
            <path d="M22,0 C22.7458636,0 44,7.59635184 44,8.84056602 C43.7767002,8.84056602 0,9.19929248 0,8.84056602 C0,7.59635184 21.2541364,0 22,0 Z" id="Rectangle" fill="#EDF4FF"></path>
        </g>
        <g id="camera" transform="translate(51.000000, 9.000000)">
            <path d="M0.35796581,3.31960246 C28.8757808,2.89346585 43.3247807,2.89346585 43.7049654,3.31960246 C43.9752062,3.62250653 44.205036,27.1426764 43.7049654,27.5519307 C42.7544843,28.3297978 1.07389743,27.9375233 0.35796581,27.5519307 C-0.119321937,27.294869 -0.119321937,19.2174262 0.35796581,3.31960246 Z" id="Rectangle" stroke="#353535" fill="#949699"></path>
            <circle id="Oval" stroke="#353535" fill="#666666" cx="22.5" cy="16.5" r="9.5"></circle>
            <circle id="Oval" stroke="#BABABA" fill="#EDF4FF" cx="22.5" cy="16.5" r="6.5"></circle>
            <path d="M0.217413395,0.467682719 C0.44468304,0.1704265 7.51893502,0.331934007 7.71203548,0.467682719 C7.90513594,0.603431431 8.2498585,3.02503232 7.71203548,3.18215671 C7.17421247,3.3392811 0.563851874,3.3392811 0.217413395,3.18215671 C-0.129025083,3.02503232 -0.00985624914,0.764938938 0.217413395,0.467682719 Z" id="Rectangle" stroke="#353535" fill="#EDF4FF"></path>
            <path d="M34.2174134,5.16768272 C34.444683,4.8704265 41.518935,5.03193401 41.7120355,5.16768272 C41.9051359,5.30343143 42.2498585,7.72503232 41.7120355,7.88215671 C41.1742125,8.0392811 34.5638519,8.0392811 34.2174134,7.88215671 C33.8709749,7.72503232 33.9901438,5.46493894 34.2174134,5.16768272 Z" id="Rectangle" stroke="#353535" fill="#EDF4FF"></path>
            <path d="M0.3726986,7.21861628 C0.862295093,6.89940859 7.55297346,6.95622845 7.8084172,7.21861628 C8.06386093,7.48100412 8.06386093,24.2995271 7.8084172,24.6789423 C7.55297346,25.0583574 0.876911307,25.1530696 0.3726986,24.6789423 C-0.131514106,24.2048149 -0.116897892,7.53782397 0.3726986,7.21861628 Z" id="Rectangle" stroke="#353535" fill="#AABAE3"></path>
        </g>
        <g id="coffee-cup" transform="translate(100.000000, 3.000000)">
            <path d="M1.76164155,5.97228893 C2.49259157,5.09949776 20.8072124,5.45787144 21.4994585,5.97228893 C22.1917047,6.48670643 19.8461187,31.7202578 18.7366095,32.7875144 C17.6271003,33.8547709 5.78404229,33.4465204 4.59925556,32.7875144 C3.41446884,32.1285083 1.03069154,6.84508011 1.76164155,5.97228893 Z" id="Rectangle" stroke="#9D5C34" fill="#DAAC90"></path>
            <path d="M1.97532109,14.0140331 C1.97532109,13.3051637 21.2752037,13.2051417 21.2752037,13.832121 C21.2752037,14.4591003 20.6180957,21.7894883 20.3695162,22.9141178 C20.1209367,24.0387472 2.95112728,23.266554 2.84037058,22.876836 C2.72961388,22.4871181 1.97532109,14.7229025 1.97532109,14.0140331 Z" id="Rectangle" stroke="#499064" fill="#A4DBB9"></path>
            <path d="M1.68270012,3.77380044 C2.25495664,3.54569554 10.0332087,3.44367589 12.0942837,3.44367589 C14.1553587,3.44367589 20.7494823,3.54245593 21.3758162,3.77380044 C22.619713,4.23324984 23.5577629,5.95124553 22.9186003,6.23263431 C22.2794377,6.51402308 0.819824879,6.51402308 0.29448897,6.23263431 C-0.230846938,5.95124553 0.530059697,4.23324984 1.68270012,3.77380044 Z" id="Rectangle" stroke="#353535" fill="#949699"></path>
            <path d="M5.14089138,0.79003139 C5.51410216,0.550711458 10.5868752,0.443675889 11.9310546,0.443675889 C13.275234,0.443675889 17.5757493,0.54731256 17.9842279,0.79003139 C18.795465,1.27207015 19.4072367,3.07453307 18.9903915,3.36975665 C18.7989286,3.50535703 15.7620177,3.35872263 12.4799847,3.36975665 C8.61651057,3.38274543 4.42078084,3.52937984 4.23553629,3.36975665 C3.89292591,3.07453307 4.38916937,1.27207015 5.14089138,0.79003139 Z" id="Rectangle" stroke="#353535" fill="#949699"></path>
        </g>
        <g id="bottle" transform="translate(128.000000, 5.000000)">
            <path d="M3.21417855,0.183273423 C3.40975238,-0.046068234 6.10427222,-0.0756663325 6.22761412,0.183273423 C6.35095601,0.442213178 6.75628091,6.20362274 6.75628091,8.16242506 C6.75628091,10.1212274 9.24623316,11.7665105 9.24623316,12.0345517 C9.24623316,12.9003215 9.50612637,29.7579124 9.24623316,30.1427376 C8.98633995,30.5275627 0.50526347,30.5275627 0.155465683,30.1427376 C-0.194332104,29.7579124 0.155465683,13.0531187 0.155465683,12.0345517 C0.155465683,11.0159848 2.72639388,10.1625587 2.72639388,8.16242506 C2.72639388,6.16229147 3.01860471,0.41261508 3.21417855,0.183273423 Z" id="Rectangle" stroke="#499064" fill="#A4DBB9"></path>
            <path d="M0.216177939,13.1427376 C0.417835589,12.430969 9.07061463,12.6297792 9.21617794,13.1427376 C9.36174125,13.6556959 9.36174125,26.7241444 9.36174125,27.1427376 C9.36174125,27.5613308 0.0145202896,27.5081906 -3.15351044e-14,27.1427376 C-0.0145202896,26.7772845 0.0145202896,13.8545061 0.216177939,13.1427376 Z" id="Rectangle" stroke="#9D5C34" fill="#DAAC90"></path>
            <path d="M3.21617794,0.142737573 C3.33355653,-3.51663143e-14 6.10843887,0.0523947877 6.21617794,0.142737573 C6.28800399,0.202966096 6.28800399,0.869632763 6.21617794,2.14273757 L3.21617794,2.14273757 C3.13792554,0.904562621 3.13792554,0.237895955 3.21617794,0.142737573 Z" id="Rectangle" stroke="#499064" fill="#EFC88B"></path>
            <ellipse id="Oval" stroke="#9D5C34" stroke-width="0.75" fill="#AABAE3" cx="4.71617794" cy="20.1427376" rx="4.5" ry="7"></ellipse>
        </g>
        <g id="plane" transform="translate(142.000000, 6.000000)" fill="#AABAE3" stroke="#353535">
            <path d="M12.4682188,0 C14.2990456,0 15.2192954,3.0302703 15.2289682,9.09081089 C21.4921163,11.5435705 24.7124166,12.8819401 24.8903193,13.1069937 C25.4661065,13.7505687 25.4661065,15.6793644 24.7287119,16 C22.8125584,15.6784128 19.5652903,15.4934232 14.9869076,15.4450311 C14.815496,17.929085 14.554785,20.712184 14.2040719,23.7947971 C18.2544163,25.6494188 20.3368602,26.6607619 20.4514583,26.8302453 C20.8208415,27.3129265 20.8208415,28.7595233 20.3477828,29 C18.9586542,28.7274432 16.4790282,28.5857136 12.9089048,28.5748113 L12.0050146,28.5748113 C8.43489118,28.5857136 5.9552652,28.7274432 4.56613665,29 C4.09307794,28.7595233 4.09307794,27.3129265 4.46246106,26.8302453 C4.57565251,26.6628423 6.60867548,25.6741205 10.56153,23.8640798 C10.3959344,21.5872542 10.1089447,18.5719871 9.90103878,15.453779 C5.68420822,15.5126692 2.66722756,15.694832 0.848906665,16 C0.111512065,15.6793644 0.111512065,13.7505687 0.687299195,13.1069937 C0.85847235,12.8904532 3.84622691,11.6432305 9.65056289,9.3653255 C9.61875201,4.21403783 10.2145037,0 12.4682188,0 Z" id="Combined-Shape"></path>
        </g>
        <path d="M24,4 C24.610252,4 42,9.90827365 42,10.8759958 C41.8173001,10.8759958 6,11.1550053 6,10.8759958 C6,9.90827365 23.389748,4 24,4 Z" id="Rectangle-Copy-2" stroke="#353535" fill="#A4DBB9"></path>
    </g>
</svg>