<?xml version="1.0" encoding="UTF-8"?>
<svg width="125px" height="99px" viewBox="0 0 125 99" version="1.1" xmlns="http://www.w3.org/2000/svg" xmlns:xlink="http://www.w3.org/1999/xlink">
    <!-- Generator: Sketch 63.1 (92452) - https://sketch.com -->
    <title>main-hero</title>
    <desc>Created with Sketch.</desc>
    <defs>
        <filter x="-37.5%" y="-26.5%" width="170.8%" height="150.0%" filterUnits="objectBoundingBox" id="filter-1">
            <feOffset dx="0" dy="0" in="SourceAlpha" result="shadowOffsetOuter1"></feOffset>
            <feGaussianBlur stdDeviation="2" in="shadowOffsetOuter1" result="shadowBlurOuter1"></feGaussianBlur>
            <feColorMatrix values="0 0 0 0 0   0 0 0 0 0   0 0 0 0 0  0 0 0 0.28 0" type="matrix" in="shadowBlurOuter1" result="shadowMatrixOuter1"></feColorMatrix>
            <feMerge>
                <feMergeNode in="shadowMatrixOuter1"></feMergeNode>
                <feMergeNode in="SourceGraphic"></feMergeNode>
            </feMerge>
        </filter>
        <filter x="-20.5%" y="-31.0%" width="140.9%" height="162.1%" filterUnits="objectBoundingBox" id="filter-2">
            <feOffset dx="0" dy="0" in="SourceAlpha" result="shadowOffsetOuter1"></feOffset>
            <feGaussianBlur stdDeviation="2" in="shadowOffsetOuter1" result="shadowBlurOuter1"></feGaussianBlur>
            <feColorMatrix values="0 0 0 0 0   0 0 0 0 0   0 0 0 0 0  0 0 0 0.28 0" type="matrix" in="shadowBlurOuter1" result="shadowMatrixOuter1"></feColorMatrix>
            <feMerge>
                <feMergeNode in="shadowMatrixOuter1"></feMergeNode>
                <feMergeNode in="SourceGraphic"></feMergeNode>
            </feMerge>
        </filter>
        <filter x="-72.7%" y="-29.0%" width="245.5%" height="154.8%" filterUnits="objectBoundingBox" id="filter-3">
            <feOffset dx="0" dy="0" in="SourceAlpha" result="shadowOffsetOuter1"></feOffset>
            <feGaussianBlur stdDeviation="2" in="shadowOffsetOuter1" result="shadowBlurOuter1"></feGaussianBlur>
            <feColorMatrix values="0 0 0 0 0   0 0 0 0 0   0 0 0 0 0  0 0 0 0.28 0" type="matrix" in="shadowBlurOuter1" result="shadowMatrixOuter1"></feColorMatrix>
            <feMerge>
                <feMergeNode in="shadowMatrixOuter1"></feMergeNode>
                <feMergeNode in="SourceGraphic"></feMergeNode>
            </feMerge>
        </filter>
        <filter x="-20.5%" y="-25.7%" width="140.9%" height="151.4%" filterUnits="objectBoundingBox" id="filter-4">
            <feOffset dx="0" dy="0" in="SourceAlpha" result="shadowOffsetOuter1"></feOffset>
            <feGaussianBlur stdDeviation="2" in="shadowOffsetOuter1" result="shadowBlurOuter1"></feGaussianBlur>
            <feColorMatrix values="0 0 0 0 0   0 0 0 0 0   0 0 0 0 0  0 0 0 0.28 0" type="matrix" in="shadowBlurOuter1" result="shadowMatrixOuter1"></feColorMatrix>
            <feMerge>
                <feMergeNode in="shadowMatrixOuter1"></feMergeNode>
                <feMergeNode in="SourceGraphic"></feMergeNode>
            </feMerge>
        </filter>
        <filter x="-24.3%" y="-60.0%" width="145.9%" height="220.0%" filterUnits="objectBoundingBox" id="filter-5">
            <feOffset dx="0" dy="0" in="SourceAlpha" result="shadowOffsetOuter1"></feOffset>
            <feGaussianBlur stdDeviation="2" in="shadowOffsetOuter1" result="shadowBlurOuter1"></feGaussianBlur>
            <feColorMatrix values="0 0 0 0 0   0 0 0 0 0   0 0 0 0 0  0 0 0 0.28 0" type="matrix" in="shadowBlurOuter1" result="shadowMatrixOuter1"></feColorMatrix>
            <feMerge>
                <feMergeNode in="shadowMatrixOuter1"></feMergeNode>
                <feMergeNode in="SourceGraphic"></feMergeNode>
            </feMerge>
        </filter>
    </defs>
    <g id="main-hero" stroke="none" stroke-width="1" fill="none" fill-rule="evenodd">
        <path d="M62.2058908,87.3310573 C71.627476,88.1172394 82.7945173,98.5680175 100.061261,91.6390674 C117.328006,84.7101174 120.866846,72.2218403 120.866846,55.5797954 C120.866846,38.9377504 122.692858,33.9693881 112.820788,22.5957452 C102.948719,11.2221023 95.3807343,4.1046064 83.4582222,4 C71.5357101,3.8968553 68.9745625,14.9004234 56.5997977,14.9004234 C44.225033,14.9004234 28.032187,8.76142396 18.0252059,13.5778938 C8.01822494,18.3943637 4.96927606,34.3240946 11.3162771,46.74859 C17.6632782,59.1730853 21.0256492,53.7265772 22.2957544,61.3499772 C23.5658596,68.9733772 17.0940952,82.546018 27.0967213,87.3310573 C37.0993475,92.1160966 52.7843056,86.5448753 62.2058908,87.3310573 Z" id="Oval" fill="#F4F4F4"></path>
        <g id="coffee-cup" filter="url(#filter-1)" transform="translate(40.000000, 36.000000) rotate(12.000000) translate(-40.000000, -36.000000) translate(28.000000, 19.000000)">
            <path d="M1.76164155,5.97228893 C2.49259157,5.09949776 20.8072124,5.45787144 21.4994585,5.97228893 C22.1917047,6.48670643 19.8461187,31.7202578 18.7366095,32.7875144 C17.6271003,33.8547709 5.78404229,33.4465204 4.59925556,32.7875144 C3.41446884,32.1285083 1.03069154,6.84508011 1.76164155,5.97228893 Z" id="Rectangle" stroke="#9D5C34" fill="#DAAC90"></path>
            <path d="M1.96426225,13.985673 C1.96426225,13.2768035 21.004663,13.2721647 21.2165029,13.848397 C21.4283429,14.4246293 20.4226565,21.6748424 19.9369286,22.6856044 C19.4512006,23.6963664 3.33708033,23.6836249 2.92808017,22.6728629 C2.51908001,21.6621009 1.96426225,14.6945424 1.96426225,13.985673 Z" id="Rectangle" stroke="#499064" fill="#A4DBB9"></path>
            <path d="M1.68270012,3.77380044 C2.25495664,3.54569554 10.0332087,3.44367589 12.0942837,3.44367589 C14.1553587,3.44367589 20.7494823,3.54245593 21.3758162,3.77380044 C22.619713,4.23324984 23.5577629,5.95124553 22.9186003,6.23263431 C22.2794377,6.51402308 0.819824879,6.51402308 0.29448897,6.23263431 C-0.230846938,5.95124553 0.530059697,4.23324984 1.68270012,3.77380044 Z" id="Rectangle" stroke="#353535" fill="#949699"></path>
            <path d="M5.14089138,0.79003139 C5.51410216,0.550711458 10.5868752,0.443675889 11.9310546,0.443675889 C13.275234,0.443675889 17.5757493,0.54731256 17.9842279,0.79003139 C18.795465,1.27207015 19.4072367,3.07453307 18.9903915,3.36975665 C18.7989286,3.50535703 15.7620177,3.35872263 12.4799847,3.36975665 C8.61651057,3.38274543 4.42078084,3.52937984 4.23553629,3.36975665 C3.89292591,3.07453307 4.38916937,1.27207015 5.14089138,0.79003139 Z" id="Rectangle" stroke="#353535" fill="#949699"></path>
        </g>
        <g id="camera" filter="url(#filter-2)" transform="translate(48.000000, 50.500000) rotate(-20.000000) translate(-48.000000, -50.500000) translate(26.000000, 36.000000)">
            <path d="M0.35796581,4.31960246 C28.8757808,3.89346585 43.3247807,3.89346585 43.7049654,4.31960246 C43.9752062,4.62250653 44.205036,28.1426764 43.7049654,28.5519307 C42.7544843,29.3297978 1.07389743,28.9375233 0.35796581,28.5519307 C-0.119321937,28.294869 -0.119321937,20.2174262 0.35796581,4.31960246 Z" id="Rectangle" stroke="#353535" fill="#949699"></path>
            <circle id="Oval" stroke="#353535" fill="#666666" cx="22.5" cy="17.5" r="9.5"></circle>
            <circle id="Oval" stroke="#BABABA" fill="#EDF4FF" cx="22.5" cy="17.5" r="6.5"></circle>
            <path d="M0.217413395,0.223576959 C0.44468304,-0.172764667 7.51893502,0.0425786761 7.71203548,0.223576959 C7.90513594,0.404575241 8.2498585,3.63337643 7.71203548,3.84287561 C7.17421247,4.0523748 0.563851874,4.0523748 0.217413395,3.84287561 C-0.129025083,3.63337643 -0.00985624914,0.619918584 0.217413395,0.223576959 Z" id="Rectangle" stroke="#353535" fill="#EDF4FF"></path>
            <path d="M34.2174134,6.16768272 C34.444683,5.8704265 41.518935,6.03193401 41.7120355,6.16768272 C41.9051359,6.30343143 42.2498585,8.72503232 41.7120355,8.88215671 C41.1742125,9.0392811 34.5638519,9.0392811 34.2174134,8.88215671 C33.8709749,8.72503232 33.9901438,6.46493894 34.2174134,6.16768272 Z" id="Rectangle" stroke="#353535" fill="#EDF4FF"></path>
            <path d="M0.3726986,8.21861628 C0.862295093,7.89940859 7.55297346,7.95622845 7.8084172,8.21861628 C8.06386093,8.48100412 8.06386093,25.2995271 7.8084172,25.6789423 C7.55297346,26.0583574 0.876911307,26.1530696 0.3726986,25.6789423 C-0.131514106,25.2048149 -0.116897892,8.53782397 0.3726986,8.21861628 Z" id="Rectangle" stroke="#353535" fill="#AABAE3"></path>
        </g>
        <g id="bottle" filter="url(#filter-3)" transform="translate(83.530154, 29.671010) rotate(-20.000000) translate(-83.530154, -29.671010) translate(78.030154, 14.171010)">
            <path d="M4.21417855,0.183273423 C4.40975238,-0.046068234 7.10427222,-0.0756663325 7.22761412,0.183273423 C7.35095601,0.442213178 7.75628091,6.20362274 7.75628091,8.16242506 C7.75628091,10.1212274 10.2462332,11.7665105 10.2462332,12.0345517 C10.2462332,12.9003215 10.5061264,29.7579124 10.2462332,30.1427376 C9.98633995,30.5275627 1.50526347,30.5275627 1.15546568,30.1427376 C0.805667896,29.7579124 1.15546568,13.0531187 1.15546568,12.0345517 C1.15546568,11.0159848 3.72639388,10.1625587 3.72639388,8.16242506 C3.72639388,6.16229147 4.01860471,0.41261508 4.21417855,0.183273423 Z" id="Rectangle" stroke="#499064" fill="#A4DBB9"></path>
            <polygon id="Rectangle" stroke="#9D5C34" fill="#DAAC90" points="1.12487524 13.3304097 10.2422995 13.3304097 10.3658123 28.2673189 0.927481966 28.3304097"></polygon>
            <path d="M4.21617794,0.142737573 C4.33355653,-4.9377169e-14 7.10843887,0.0523947877 7.21617794,0.142737573 C7.28800399,0.202966096 7.28800399,0.869632763 7.21617794,2.14273757 L4.21617794,2.14273757 C4.13792554,0.904562621 4.13792554,0.237895955 4.21617794,0.142737573 Z" id="Rectangle" stroke="#499064" fill="#EFC88B"></path>
            <ellipse id="Oval" stroke="#9D5C34" stroke-width="0.75" fill="#AABAE3" cx="5.71617794" cy="20.6427376" rx="4.17857143" ry="6.5"></ellipse>
        </g>
        <g id="museum" filter="url(#filter-4)" transform="translate(86.000000, 53.500000) rotate(13.000000) translate(-86.000000, -53.500000) translate(64.000000, 36.000000)">
            <rect id="Rectangle" stroke="#3E3B33" fill="#F2F3D8" x="4.00023669" y="2.8748603" width="36" height="32"></rect>
            <g id="stairs" transform="translate(2.000237, 25.874860)" fill="#EDF4FF" stroke="#353535">
                <rect id="bottom" x="0" y="6" width="40" height="3"></rect>
                <rect id="middle" x="4" y="3" width="32" height="3"></rect>
                <rect id="top" x="8" y="0" width="24" height="3"></rect>
            </g>
            <g id="columns" transform="translate(10.000237, 8.874860)" stroke="#353535">
                <g id="cols" transform="translate(0.000000, 3.000000)" fill="#A4DBB9">
                    <rect id="Rectangle" x="21" y="0" width="3" height="11"></rect>
                    <rect id="Rectangle" x="7" y="0" width="3" height="11"></rect>
                    <rect id="Rectangle" x="14" y="0" width="3" height="11"></rect>
                    <rect id="Rectangle" x="0" y="0" width="3" height="11"></rect>
                </g>
                <g id="bases" transform="translate(0.000000, 14.000000)" fill="#EDF4FF">
                    <rect id="Rectangle" x="21" y="0" width="3" height="3"></rect>
                    <rect id="Rectangle" x="0" y="0" width="3" height="3"></rect>
                    <rect id="Rectangle" x="7" y="0" width="3" height="3"></rect>
                    <rect id="Rectangle" x="14" y="0" width="3" height="3"></rect>
                </g>
                <g id="caps" fill="#EDF4FF">
                    <rect id="Rectangle" x="21" y="0" width="3" height="3"></rect>
                    <rect id="Rectangle" x="0" y="0" width="3" height="3"></rect>
                    <rect id="Rectangle" x="7" y="0" width="3" height="3"></rect>
                    <rect id="Rectangle" x="14" y="0" width="3" height="3"></rect>
                </g>
            </g>
            <path d="M22,0 C22.7458636,0 44,7.59635184 44,8.84056602 C43.7767002,8.84056602 2.27373675e-13,9.19929248 2.27373675e-13,8.84056602 C2.27373675e-13,7.59635184 21.2541364,0 22,0 Z" id="Rectangle" stroke="#353535" fill="#EDF4FF"></path>
            <path d="M22,2 C22.610252,2 40,8.21519696 40,9.23319038 C39.8173001,9.23319038 4,9.52669385 4,9.23319038 C4,8.21519696 21.389748,2 22,2 Z" id="Rectangle-Copy" stroke="#353535" fill="#A4DBB9"></path>
        </g>
        <g id="ticket" filter="url(#filter-5)" transform="translate(64.500000, 73.500000) rotate(-1.000000) translate(-64.500000, -73.500000) translate(46.000000, 66.000000)">
            <path d="M0.185420917,0.495729551 C0.526995311,-0.270261673 26.0512131,-0.0512114206 26.0512131,0.495729551 C26.0512131,1.04267052 26.2051285,14.3648349 26.2051285,14.6324434 C26.0118779,14.7015201 0.574469041,15.1033704 0.286204231,14.4850433 C-0.00206057886,13.8667162 -0.133574089,1.20203287 0.185420917,0.495729551 Z" id="Rectangle" stroke="#E85F5C" fill="#FFFFFF"></path>
            <path d="M26.1415943,0.495729551 C26.1415943,0.289824348 35.8012131,-0.0512114206 35.9437901,0.495729551 C36.0863672,1.04267052 36.0863672,13.9487886 35.9437901,14.4487886 C35.8012131,14.9487886 26.2512131,14.9487886 26.1415943,14.4487886 C26.0319755,13.9487886 26.1415943,0.701634755 26.1415943,0.495729551 Z" id="Rectangle" stroke="#E85F5C" fill="#E85F5C"></path>
            <line x1="28.0512131" y1="12.4487886" x2="32.0512131" y2="12.4487886" id="Line" stroke="#FFFFF0" stroke-linecap="round" stroke-linejoin="round"></line>
            <line x1="28.0512131" y1="6.44878858" x2="34.0512131" y2="6.44878858" id="Line" stroke="#FFFFF0" stroke-linecap="round"></line>
            <line x1="28.0512131" y1="4.44878858" x2="31.5512131" y2="4.44878858" id="Line" stroke="#FFFFF0" stroke-linecap="round"></line>
            <g id="plane" transform="translate(6.365147, 6.948789) rotate(50.000000) translate(-6.365147, -6.948789) translate(2.865147, 2.948789)" fill="#E85F5C">
                <path d="M3.84314575,2.5 C5.80567832,3.28704765 6.81148988,3.71263046 6.86058044,3.77674843 C7,3.93764218 7,4.41984111 6.82144924,4.5 C6.27529181,4.40536221 5.28252398,4.35804332 3.84314575,4.35804332 L3.84314575,2.5 Z" id="Rectangle"></path>
                <path d="M3.85,6.15 C5.10901808,6.72270142 5.75427358,7.03238011 5.78576652,7.07903606 C5.87520796,7.19611167 5.87520796,7.54698752 5.76066279,7.60531577 C5.41028792,7.53645184 4.77340033,7.50201987 3.85,7.50201987 L3.85,6.15 Z" id="Rectangle"></path>
                <path d="M0.9,2.5 C2.86253256,3.28704765 3.86834413,3.71263046 3.91743469,3.77674843 C4.05685425,3.93764218 4.05685425,4.41984111 3.87830349,4.5 C3.33214606,4.40536221 2.33937823,4.35804332 0.9,4.35804332 L0.9,2.5 Z" id="Rectangle" transform="translate(2.458780, 3.500000) scale(-1, 1) translate(-2.458780, -3.500000) "></path>
                <path d="M1.85,6.15 C3.10901808,6.72270142 3.75427358,7.03238011 3.78576652,7.07903606 C3.87520796,7.19611167 3.87520796,7.54698752 3.76066279,7.60531577 C3.41028792,7.53645184 2.77340033,7.50201987 1.85,7.50201987 L1.85,6.15 Z" id="Rectangle" transform="translate(2.850000, 6.877658) scale(-1, 1) translate(-2.850000, -6.877658) "></path>
                <path d="M3.85266091,0.583333333 C4.56961458,0.583333333 4.7044824,2.58333333 4.25726435,6.58333333 L3.40382341,6.58333333 C2.98609473,2.58333333 3.13570723,0.583333333 3.85266091,0.583333333 Z" id="Rectangle"></path>
            </g>
            <line x1="11.7512131" y1="10.4487886" x2="15.0512131" y2="10.4487886" id="Line" stroke="#E85F5C" stroke-linecap="round" stroke-linejoin="round"></line>
            <line x1="11.7512131" y1="8.44878858" x2="21.5512131" y2="8.44878858" id="Line" stroke="#E85F5C" stroke-linecap="round" stroke-linejoin="round"></line>
            <line x1="11.7512131" y1="6.44878858" x2="23.5512131" y2="6.44878858" id="Line" stroke="#E85F5C" stroke-linecap="round" stroke-linejoin="round"></line>
        </g>
    </g>
</svg>