<?xml version="1.0" encoding="UTF-8"?>
<svg width="38px" height="17px" viewBox="0 0 38 17" version="1.1" xmlns="http://www.w3.org/2000/svg" xmlns:xlink="http://www.w3.org/1999/xlink">
    <!-- Generator: Sketch 63.1 (92452) - https://sketch.com -->
    <title>ticket</title>
    <desc>Created with Sketch.</desc>
    <g id="ticket" stroke="none" stroke-width="1" fill="none" fill-rule="evenodd">
        <g transform="translate(19.500000, 8.500000) rotate(-1.000000) translate(-19.500000, -8.500000) translate(1.000000, 1.000000)">
            <path d="M0.185420917,0.495729551 C0.526995311,-0.270261673 26.0512131,-0.0512114206 26.0512131,0.495729551 C26.0512131,1.04267052 26.2051285,14.3648349 26.2051285,14.6324434 C26.0118779,14.7015201 0.574469041,15.1033704 0.286204231,14.4850433 C-0.00206057886,13.8667162 -0.133574089,1.20203287 0.185420917,0.495729551 Z" id="Rectangle" stroke="#E85F5C" fill="#FFFFFF"></path>
            <path d="M26.1415943,0.495729551 C26.1415943,0.289824348 35.8012131,-0.0512114206 35.9437901,0.495729551 C36.0863672,1.04267052 36.0863672,13.9487886 35.9437901,14.4487886 C35.8012131,14.9487886 26.2512131,14.9487886 26.1415943,14.4487886 C26.0319755,13.9487886 26.1415943,0.701634755 26.1415943,0.495729551 Z" id="Rectangle" stroke="#E85F5C" fill="#E85F5C"></path>
            <line x1="28.0512131" y1="12.4487886" x2="32.0512131" y2="12.4487886" id="Line" stroke="#EDF4FF" stroke-linecap="round" stroke-linejoin="round"></line>
            <line x1="28.0512131" y1="6.44878858" x2="34.0512131" y2="6.44878858" id="Line" stroke="#EDF4FF" stroke-linecap="round"></line>
            <line x1="28.0512131" y1="4.44878858" x2="31.5512131" y2="4.44878858" id="Line" stroke="#EDF4FF" stroke-linecap="round"></line>
            <g id="plane" transform="translate(6.365147, 6.948789) rotate(50.000000) translate(-6.365147, -6.948789) translate(2.865147, 2.948789)" fill="#E85F5C">
                <path d="M3.84314575,2.5 C5.80567832,3.28704765 6.81148988,3.71263046 6.86058044,3.77674843 C7,3.93764218 7,4.41984111 6.82144924,4.5 C6.27529181,4.40536221 5.28252398,4.35804332 3.84314575,4.35804332 L3.84314575,2.5 Z" id="Rectangle"></path>
                <path d="M3.85,6.15 C5.10901808,6.72270142 5.75427358,7.03238011 5.78576652,7.07903606 C5.87520796,7.19611167 5.87520796,7.54698752 5.76066279,7.60531577 C5.41028792,7.53645184 4.77340033,7.50201987 3.85,7.50201987 L3.85,6.15 Z" id="Rectangle"></path>
                <path d="M0.9,2.5 C2.86253256,3.28704765 3.86834413,3.71263046 3.91743469,3.77674843 C4.05685425,3.93764218 4.05685425,4.41984111 3.87830349,4.5 C3.33214606,4.40536221 2.33937823,4.35804332 0.9,4.35804332 L0.9,2.5 Z" id="Rectangle" transform="translate(2.458780, 3.500000) scale(-1, 1) translate(-2.458780, -3.500000) "></path>
                <path d="M1.85,6.15 C3.10901808,6.72270142 3.75427358,7.03238011 3.78576652,7.07903606 C3.87520796,7.19611167 3.87520796,7.54698752 3.76066279,7.60531577 C3.41028792,7.53645184 2.77340033,7.50201987 1.85,7.50201987 L1.85,6.15 Z" id="Rectangle" transform="translate(2.850000, 6.877658) scale(-1, 1) translate(-2.850000, -6.877658) "></path>
                <path d="M3.85266091,0.583333333 C4.56961458,0.583333333 4.7044824,2.58333333 4.25726435,6.58333333 L3.40382341,6.58333333 C2.98609473,2.58333333 3.13570723,0.583333333 3.85266091,0.583333333 Z" id="Rectangle"></path>
            </g>
            <line x1="11.7512131" y1="10.4487886" x2="15.0512131" y2="10.4487886" id="Line" stroke="#E85F5C" stroke-linecap="round" stroke-linejoin="round"></line>
            <line x1="11.7512131" y1="8.44878858" x2="21.5512131" y2="8.44878858" id="Line" stroke="#E85F5C" stroke-linecap="round" stroke-linejoin="round"></line>
            <line x1="11.7512131" y1="6.44878858" x2="23.5512131" y2="6.44878858" id="Line" stroke="#E85F5C" stroke-linecap="round" stroke-linejoin="round"></line>
        </g>
    </g>
</svg>