<?xml version="1.0" encoding="UTF-8"?>
<svg width="212px" height="39px" viewBox="0 0 212 39" version="1.1" xmlns="http://www.w3.org/2000/svg" xmlns:xlink="http://www.w3.org/1999/xlink">
    <!-- Generator: Sketch 63.1 (92452) - https://sketch.com -->
    <title>page-footer-grayscale</title>
    <desc>Created with Sketch.</desc>
    <g id="page-footer-grayscale" stroke="none" stroke-width="1" fill="none" fill-rule="evenodd">
        <g id="museum" transform="translate(1.000000, 1.000000)" stroke="#979797">
            <rect id="Rectangle" x="4.00023669" y="2.8748603" width="36" height="32"></rect>
            <g id="stairs" transform="translate(2.000237, 25.874860)" fill="#D8D8D8">
                <rect id="bottom" x="0" y="6" width="40" height="3"></rect>
                <rect id="middle" x="4" y="3" width="32" height="3"></rect>
                <rect id="top" x="8" y="0" width="24" height="3"></rect>
            </g>
            <g id="columns" transform="translate(10.000237, 8.874860)">
                <g id="cols" transform="translate(0.000000, 3.000000)" fill="#D8D8D8">
                    <rect id="Rectangle" x="21" y="0" width="3" height="11"></rect>
                    <rect id="Rectangle" x="7" y="0" width="3" height="11"></rect>
                    <rect id="Rectangle" x="14" y="0" width="3" height="11"></rect>
                    <rect id="Rectangle" x="0" y="0" width="3" height="11"></rect>
                </g>
                <g id="bases" transform="translate(0.000000, 14.000000)" fill="#FFFFFF">
                    <rect id="Rectangle" x="21" y="0" width="3" height="3"></rect>
                    <rect id="Rectangle" x="0" y="0" width="3" height="3"></rect>
                    <rect id="Rectangle" x="7" y="0" width="3" height="3"></rect>
                    <rect id="Rectangle" x="14" y="0" width="3" height="3"></rect>
                </g>
                <g id="caps" fill="#FFFFFF">
                    <rect id="Rectangle" x="21" y="0" width="3" height="3"></rect>
                    <rect id="Rectangle" x="0" y="0" width="3" height="3"></rect>
                    <rect id="Rectangle" x="7" y="0" width="3" height="3"></rect>
                    <rect id="Rectangle" x="14" y="0" width="3" height="3"></rect>
                </g>
            </g>
            <path d="M22,0 C22.7458636,0 44,7.59635184 44,8.84056602 C43.7767002,8.84056602 0,9.19929248 0,8.84056602 C0,7.59635184 21.2541364,0 22,0 Z" id="Rectangle" fill="#D8D8D8"></path>
        </g>
        <g id="camera" transform="translate(121.000000, 7.000000)" stroke="#979797">
            <path d="M0.35796581,4.31960246 C28.8757808,3.89346585 43.3247807,3.89346585 43.7049654,4.31960246 C43.9752062,4.62250653 44.205036,28.1426764 43.7049654,28.5519307 C42.7544843,29.3297978 1.07389743,28.9375233 0.35796581,28.5519307 C-0.119321937,28.294869 -0.119321937,20.2174262 0.35796581,4.31960246 Z" id="Rectangle" fill="#D8D8D8"></path>
            <circle id="Oval" fill="#FFFFFF" cx="22.5" cy="17.5" r="9.5"></circle>
            <circle id="Oval" fill="#D8D8D8" cx="22.5" cy="17.5" r="6.5"></circle>
            <path d="M0.217413395,0.167682719 C0.44468304,-0.1295735 7.51893502,0.0319340071 7.71203548,0.167682719 C7.90513594,0.303431431 8.2498585,2.72503232 7.71203548,2.88215671 C7.17421247,3.0392811 0.563851874,3.0392811 0.217413395,2.88215671 C-0.129025083,2.72503232 -0.00985624914,0.464938938 0.217413395,0.167682719 Z" id="Rectangle" fill="#FFFFFF"></path>
            <path d="M34.2174134,6.16768272 C34.444683,5.8704265 41.518935,6.03193401 41.7120355,6.16768272 C41.9051359,6.30343143 42.2498585,8.72503232 41.7120355,8.88215671 C41.1742125,9.0392811 34.5638519,9.0392811 34.2174134,8.88215671 C33.8709749,8.72503232 33.9901438,6.46493894 34.2174134,6.16768272 Z" id="Rectangle" fill="#FFFFFF"></path>
            <path d="M0.3726986,8.21861628 C0.862295093,7.89940859 7.55297346,7.95622845 7.8084172,8.21861628 C8.06386093,8.48100412 8.06386093,25.2995271 7.8084172,25.6789423 C7.55297346,26.0583574 0.876911307,26.1530696 0.3726986,25.6789423 C-0.131514106,25.2048149 -0.116897892,8.53782397 0.3726986,8.21861628 Z" id="Rectangle" fill="#FFFFFF"></path>
        </g>
        <g id="coffee-cup" transform="translate(83.000000, 3.000000)" stroke="#979797">
            <path d="M1.76164155,5.97228893 C2.49259157,5.09949776 20.8072124,5.45787144 21.4994585,5.97228893 C22.1917047,6.48670643 19.8461187,31.7202578 18.7366095,32.7875144 C17.6271003,33.8547709 5.78404229,33.4465204 4.59925556,32.7875144 C3.41446884,32.1285083 1.03069154,6.84508011 1.76164155,5.97228893 Z" id="Rectangle"></path>
            <path d="M2.125,13.9931933 C2.125,13.2843239 20.8808796,13.2843239 21.0927196,13.8605562 C21.3045595,14.4367885 20.4226565,21.6748424 19.9369286,22.6856044 C19.4512006,23.6963664 3.52761124,23.6963664 3.11861108,22.6856044 C2.70961092,21.6748424 2.125,14.7020627 2.125,13.9931933 Z" id="Rectangle" fill="#D8D8D8"></path>
            <path d="M1.68270012,3.77380044 C2.25495664,3.54569554 10.0332087,3.44367589 12.0942837,3.44367589 C14.1553587,3.44367589 20.7494823,3.54245593 21.3758162,3.77380044 C22.619713,4.23324984 23.5577629,5.95124553 22.9186003,6.23263431 C22.2794377,6.51402308 0.819824879,6.51402308 0.29448897,6.23263431 C-0.230846938,5.95124553 0.530059697,4.23324984 1.68270012,3.77380044 Z" id="Rectangle" fill="#D8D8D8"></path>
            <path d="M5.14089138,0.79003139 C5.51410216,0.550711458 10.5868752,0.443675889 11.9310546,0.443675889 C13.275234,0.443675889 17.5757493,0.54731256 17.9842279,0.79003139 C18.795465,1.27207015 19.4072367,3.07453307 18.9903915,3.36975665 C18.7989286,3.50535703 15.7620177,3.35872263 12.4799847,3.36975665 C8.61651057,3.38274543 4.42078084,3.52937984 4.23553629,3.36975665 C3.89292591,3.07453307 4.38916937,1.27207015 5.14089138,0.79003139 Z" id="Rectangle" fill="#D8D8D8"></path>
        </g>
        <g id="bottle" transform="translate(59.000000, 5.000000)" stroke="#979797">
            <path d="M3.21417855,0.183273423 C3.40975238,-0.046068234 6.10427222,-0.0756663325 6.22761412,0.183273423 C6.35095601,0.442213178 6.75628091,6.20362274 6.75628091,8.16242506 C6.75628091,10.1212274 9.24623316,11.7665105 9.24623316,12.0345517 C9.24623316,12.9003215 9.50612637,29.7579124 9.24623316,30.1427376 C8.98633995,30.5275627 0.50526347,30.5275627 0.155465683,30.1427376 C-0.194332104,29.7579124 0.155465683,13.0531187 0.155465683,12.0345517 C0.155465683,11.0159848 2.72639388,10.1625587 2.72639388,8.16242506 C2.72639388,6.16229147 3.01860471,0.41261508 3.21417855,0.183273423 Z" id="Rectangle"></path>
            <rect id="Rectangle" fill="#D8D8D8" x="0.216177939" y="13.1427376" width="9" height="14"></rect>
            <path d="M3.21617794,0.142737573 C3.33355653,-2.98372438e-14 6.10843887,0.0523947877 6.21617794,0.142737573 C6.28800399,0.202966096 6.28800399,0.869632763 6.21617794,2.14273757 L3.21617794,2.14273757 C3.13792554,0.904562621 3.13792554,0.237895955 3.21617794,0.142737573 Z" id="Rectangle" fill="#D8D8D8"></path>
            <ellipse id="Oval" fill="#FFFFFF" cx="4.71617794" cy="20.1427376" rx="4.5" ry="7"></ellipse>
        </g>
        <g id="airplane" transform="translate(179.000000, 6.000000)" stroke="#979797">
            <path d="M18.0618932,10.625 C18.1444175,10.525 22.1055825,10.525 22.1881068,10.625 C22.2706311,10.725 22.2706311,12.525 22.1881068,12.625 C22.1055825,12.725 18.1444175,12.725 18.0618932,12.625 C17.9793689,12.525 17.9793689,10.725 18.0618932,10.625 Z" id="Rectangle" fill="#FFFFFF" transform="translate(20.125000, 11.625000) rotate(90.000000) translate(-20.125000, -11.625000) "></path>
            <path d="M3.01189321,10.625 C3.09441748,10.525 7.05558253,10.525 7.1381068,10.625 C7.22063107,10.725 7.22063107,12.525 7.1381068,12.625 C7.05558253,12.725 3.09441748,12.725 3.01189321,12.625 C2.92936893,12.525 2.92936893,10.725 3.01189321,10.625 Z" id="Rectangle" fill="#FFFFFF" transform="translate(5.075000, 11.625000) rotate(90.000000) translate(-5.075000, -11.625000) "></path>
            <path d="M13.4762095,24 C16.6237547,25.705953 18.2368934,26.6551064 18.3156258,26.8474603 C18.5392294,27.3301416 18.5392294,28.7767384 18.2528665,29.017215 C17.3769293,28.7333017 15.7847103,28.2420321 13.4762095,27.5434064 L13.4762095,24 Z" id="Rectangle" fill="#D8D8D8"></path>
            <path d="M5.97620948,24 C9.12525247,25.705953 10.7388228,26.6551064 10.8169204,26.8474603 C11.0387213,27.3301416 11.0387213,28.7767384 10.754667,29.017215 C9.8857915,28.7333017 8.29297232,28.2169609 5.97620948,27.4681926 L5.97620948,24 Z" id="Rectangle" fill="#D8D8D8" transform="translate(8.476209, 26.508608) scale(-1, 1) translate(-8.476209, -26.508608) "></path>
            <path d="M12.1548619,8 C20.2599013,11.1481906 24.4137903,12.8505218 24.6165288,13.1069937 C25.1923159,13.7505687 25.1923159,15.6793644 24.4549213,16 C22.1993524,15.6214488 18.0993326,15.4321733 12.1548619,15.4321733 L12.1548619,8 Z" id="Rectangle" fill="#D8D8D8"></path>
            <path d="M-4.08562073e-14,8 C8.10503941,11.1481906 12.2589284,12.8505218 12.4616669,13.1069937 C13.037454,13.7505687 13.037454,15.6793644 12.3000594,16 C10.0444905,15.6214488 5.94447067,15.4321733 -4.08562073e-14,15.4321733 L-4.08562073e-14,8 Z" id="Rectangle" fill="#D8D8D8" transform="translate(6.437588, 12.000000) scale(-1, 1) translate(-6.437588, -12.000000) "></path>
            <path d="M12.1944283,0 C16.6773902,0 14.3230723,23.0102692 14.2255076,24.0134792 C14.1279429,25.0166892 13.9299218,29 12.1004923,29 C10.2710628,29 10.3250752,25.0269583 10.2166414,24.0134792 C10.1082077,23 7.71146637,0 12.1944283,0 Z" id="Rectangle" fill="#FFFFFF"></path>
            <path d="M10.1618932,3.075 C10.2041213,3.02382944 11.1709727,2.26037199 12.205018,2.26155053 C13.1917544,2.2627131 14.2478107,3.02617056 14.2881068,3.075 C14.3706311,3.175 14.3706311,4.975 14.2881068,5.075 C14.2470148,5.12479383 13.2317375,4.74416277 12.225,4.74436809 C11.2099258,4.7445751 10.2033255,5.12520617 10.1618932,5.075 C10.0793689,4.975 10.0793689,3.175 10.1618932,3.075 Z" id="Rectangle" fill="#D8D8D8"></path>
        </g>
    </g>
</svg>